<?xml version="1.0" encoding="UTF-8"?>
<svg version="1.1" xmlns="http://www.w3.org/2000/svg" width="512" height="512">
<path d="M0 0 C1.61613872 -0.00302333 3.23227601 -0.00691372 4.84841079 -0.01159257 C9.27435101 -0.02185803 13.70021009 -0.01969444 18.12615693 -0.01541197 C22.90542287 -0.0129421 27.68466941 -0.02196218 32.46392822 -0.02944946 C41.82140178 -0.04219141 51.17884663 -0.04399076 60.5363274 -0.0416492 C68.14375569 -0.03986525 75.75117527 -0.04161734 83.35860252 -0.04587364 C84.98348881 -0.04676643 84.98348881 -0.04676643 86.64120108 -0.04767724 C88.8419425 -0.04888901 91.04268391 -0.05010315 93.24342533 -0.05131962 C113.87708656 -0.06219331 134.51073144 -0.06003353 155.14439359 -0.05393478 C174.01152597 -0.0487663 192.87860672 -0.06001955 211.74572889 -0.07903299 C231.12804934 -0.09841557 250.51034537 -0.10666662 269.89267558 -0.10290974 C280.77051695 -0.10099827 291.64831438 -0.10347999 302.52614784 -0.11762428 C311.78704967 -0.12954441 321.04788051 -0.13093588 330.30878333 -0.11883412 C335.03127505 -0.11294978 339.75363696 -0.1118337 344.47612 -0.12383652 C348.80461104 -0.13470984 353.1328641 -0.13157475 357.46134409 -0.11757483 C359.02184341 -0.11493189 360.58236148 -0.11728172 362.14284239 -0.1253107 C374.39207342 -0.18392872 385.35754588 1.26177466 396.30412292 7.01069641 C397.32409363 7.53566711 397.32409363 7.53566711 398.3646698 8.07124329 C403.76985071 10.92612871 408.57567943 14.14917816 413.11662292 18.26069641 C413.78822449 18.84077454 414.45982605 19.42085266 415.15177917 20.01850891 C426.8273922 30.771771 435.425633 47.7093271 436.3030535 63.64708292 C436.37748172 67.81398277 436.38837712 71.97671994 436.37731934 76.14407349 C436.38034266 77.76021221 436.38423305 79.3763495 436.3889119 80.99248427 C436.39917737 85.41842449 436.39701378 89.84428358 436.39273131 94.27023041 C436.39026144 99.04949636 436.39928152 103.8287429 436.4067688 108.60800171 C436.41951075 117.96547526 436.4213101 127.32292012 436.41896854 136.68040089 C436.41718458 144.28782918 436.41893668 151.89524876 436.42319298 159.50267601 C436.42378817 160.58593353 436.42438336 161.66919105 436.42499658 162.78527456 C436.42620835 164.98601598 436.42742248 167.1867574 436.42863896 169.38749882 C436.43951265 190.02116005 436.43735287 210.65480492 436.43125411 231.28846707 C436.42608563 250.15559946 436.43733889 269.0226802 436.45635233 287.88980237 C436.47573491 307.27212283 436.48398596 326.65441886 436.48022908 346.03674906 C436.47831761 356.91459044 436.48079933 367.79238787 436.49494362 378.67022133 C436.50686375 387.93112316 436.50825522 397.191954 436.49615345 406.45285682 C436.49026912 411.17534854 436.48915303 415.89771044 436.50115585 420.62019348 C436.51202918 424.94868453 436.50889409 429.27693759 436.49489417 433.60541757 C436.49225122 435.1659169 436.49460106 436.72643497 436.50263003 438.28691588 C436.56124806 450.53614691 435.11554468 461.50161937 429.36662292 472.44819641 C428.84165222 473.46816711 428.84165222 473.46816711 428.30607605 474.50874329 C425.45119062 479.9139242 422.22814118 484.71975292 418.11662292 489.26069641 C417.5365448 489.93229797 416.95646667 490.60389954 416.35881042 491.29585266 C405.60554833 502.97146568 388.66799224 511.56970648 372.73023641 512.44712698 C368.56333657 512.5215552 364.40059939 512.53245061 360.23324585 512.52139282 C358.61710713 512.52441615 357.00096984 512.52830654 355.38483506 512.53298539 C350.95889484 512.54325085 346.53303576 512.54108726 342.10708892 512.5368048 C337.32782298 512.53433493 332.54857644 512.543355 327.76931763 512.55084229 C318.41184407 512.56358424 309.05439922 512.56538359 299.69691845 512.56304202 C292.08949016 512.56125807 284.48207058 512.56301016 276.87464333 512.56726646 C275.24975704 512.56815925 275.24975704 512.56815925 273.59204477 512.56907007 C271.39130335 512.57028184 269.19056194 512.57149597 266.98982052 512.57271244 C246.35615929 512.58358613 225.72251441 512.58142635 205.08885226 512.5753276 C186.22171988 512.57015912 167.35463913 512.58141238 148.48751696 512.60042582 C129.10519651 512.61980839 109.72290048 512.62805944 90.34057027 512.62430257 C79.4627289 512.62239109 68.58493147 512.62487282 57.70709801 512.63901711 C48.44619617 512.65093723 39.18536534 512.6523287 29.92446252 512.64022694 C25.2019708 512.6343426 20.47960889 512.63322652 15.75712585 512.64522934 C11.42863481 512.65610267 7.10038175 512.65296758 2.77190176 512.63896766 C1.21140244 512.63632471 -0.34911563 512.63867455 -1.90959654 512.64670352 C-23.77986559 512.75136249 -41.94918317 505.4104377 -57.88337708 490.26069641 C-60.55189708 487.10141411 -62.75918802 483.80456961 -64.88337708 480.26069641 C-65.41704895 479.38413391 -65.95072083 478.50757141 -66.50056458 477.60444641 C-72.25921335 467.63424854 -76.00261298 457.12188992 -76.01480484 445.55696774 C-76.01685747 444.89295119 -76.01891011 444.22893464 -76.02102494 443.54479638 C-76.02668707 441.31595804 -76.02523866 439.08718166 -76.02381897 436.8583374 C-76.02640307 435.24565197 -76.02941635 433.63296718 -76.03282237 432.02028328 C-76.04089056 427.58532725 -76.04268184 423.1503874 -76.04341984 418.7154249 C-76.04527073 413.93336641 -76.05281831 409.15131632 -76.05955505 404.3692627 C-76.07313817 393.91041007 -76.07916322 383.45156127 -76.08356571 372.99270129 C-76.08632848 366.46120863 -76.09056593 359.92971745 -76.09506989 353.39822578 C-76.10726311 335.31229336 -76.11756194 317.22636213 -76.12094498 299.14042568 C-76.12116454 297.98281642 -76.12138411 296.82520716 -76.12161033 295.63251883 C-76.12182861 294.47214523 -76.12204688 293.31177163 -76.12227178 292.1162352 C-76.12271524 289.76489349 -76.1231618 287.41355179 -76.12361145 285.06221008 C-76.12383288 283.89586433 -76.12405431 282.72951857 -76.12428245 281.527829 C-76.12822931 262.63457899 -76.14567969 243.74136758 -76.16897097 224.84813248 C-76.1926941 205.44786182 -76.20514729 186.04761051 -76.20631289 166.6473251 C-76.20722918 155.7560062 -76.2129696 144.86473758 -76.23113251 133.97343254 C-76.24654653 124.69779948 -76.2516463 115.42223223 -76.2433944 106.14658879 C-76.23949237 101.41602037 -76.24039565 96.68558441 -76.25445175 91.95503235 C-76.2672175 87.61898574 -76.26596974 83.28317078 -76.25386104 78.94712437 C-76.25190865 77.38381138 -76.25496116 75.82048182 -76.2637054 74.25719207 C-76.3112119 65.18497138 -75.56478642 56.97380882 -72.88337708 48.26069641 C-72.48607031 46.84444227 -72.09000175 45.42783939 -71.69587708 44.01069641 C-71.42775208 43.10319641 -71.15962708 42.19569641 -70.88337708 41.26069641 C-70.22337708 41.26069641 -69.56337708 41.26069641 -68.88337708 41.26069641 C-68.65650208 40.41507141 -68.42962708 39.56944641 -68.19587708 38.69819641 C-66.86434462 35.2108495 -65.26644204 32.79373279 -63.00447083 29.87397766 C-61.68615646 28.1385174 -61.68615646 28.1385174 -60.88337708 25.26069641 C-59.24370498 23.894303 -57.5722758 22.56575452 -55.88337708 21.26069641 C-55.16150208 20.49757141 -54.43962708 19.73444641 -53.69587708 18.94819641 C-47.48195141 13.01044522 -40.63602497 8.91286017 -32.82087708 5.44819641 C-31.84864197 5.01337952 -31.84864197 5.01337952 -30.85676575 4.56977844 C-20.68355118 0.23808979 -10.88354162 -0.02887873 0 0 Z " fill="#7868F5" transform="translate(75.88337707519531,-0.2606964111328125)"/>
<path d="M0 0 C8.6588094 -0.06989728 17.31751979 -0.123011 25.97655106 -0.15543652 C29.99846706 -0.17100899 34.02018825 -0.19209068 38.04199219 -0.22631836 C41.93237946 -0.25921567 45.82258085 -0.27691609 49.71309662 -0.28463173 C51.18806631 -0.29012133 52.66302729 -0.30083899 54.13791656 -0.31719017 C66.36242665 -0.44717053 77.2672597 1.01490977 88.1875 6.75 C89.2074707 7.2749707 89.2074707 7.2749707 90.24804688 7.81054688 C95.65322778 10.6654323 100.45905651 13.88848175 105 18 C105.67160156 18.58007812 106.34320313 19.16015625 107.03515625 19.7578125 C118.71076927 30.51107459 127.30901007 47.44863069 128.18643057 63.38638651 C128.26085879 67.55328636 128.2717542 71.71602353 128.26069641 75.88337708 C128.26371974 77.4995158 128.26761013 79.11565309 128.27228898 80.73178786 C128.28255444 85.15772808 128.28039085 89.58358717 128.27610838 94.009534 C128.27363851 98.78879995 128.28265859 103.56804649 128.29014587 108.3473053 C128.30288783 117.70477885 128.30468717 127.0622237 128.30234561 136.41970447 C128.30056166 144.02713276 128.30231375 151.63455235 128.30657005 159.2419796 C128.30716524 160.32523712 128.30776043 161.40849464 128.30837366 162.52457815 C128.30958543 164.72531957 128.31079956 166.92606099 128.31201603 169.12680241 C128.32288972 189.76046363 128.32072994 210.39410851 128.31463119 231.02777066 C128.30946271 249.89490305 128.32071597 268.76198379 128.33972941 287.62910596 C128.35911198 307.01142642 128.36736303 326.39372245 128.36360615 345.77605265 C128.36169468 356.65389403 128.3641764 367.53169146 128.37832069 378.40952492 C128.39024082 387.67042675 128.39163229 396.93125758 128.37953053 406.19216041 C128.37364619 410.91465213 128.37253011 415.63701403 128.38453293 420.35949707 C128.39540625 424.68798812 128.39227117 429.01624118 128.37827124 433.34472116 C128.3756283 434.90522049 128.37797813 436.46573855 128.38600711 438.02621946 C128.44462513 450.2754505 126.99892176 461.24092296 121.25 472.1875 C120.7250293 473.2074707 120.7250293 473.2074707 120.18945312 474.24804688 C117.3345677 479.65322778 114.11151825 484.45905651 110 489 C109.41992188 489.67160156 108.83984375 490.34320313 108.2421875 491.03515625 C97.48892541 502.71076927 80.55136931 511.30901007 64.61361349 512.18643057 C60.44671364 512.26085879 56.28397647 512.2717542 52.11662292 512.26069641 C50.5004842 512.26371974 48.88434691 512.26761013 47.26821214 512.27228898 C42.84227192 512.28255444 38.41641283 512.28039085 33.990466 512.27610838 C29.21120005 512.27363851 24.43195351 512.28265859 19.6526947 512.29014587 C10.29522115 512.30288783 0.9377763 512.30468717 -8.41970447 512.30234561 C-16.02713276 512.30056166 -23.63455235 512.30231375 -31.2419796 512.30657005 C-32.86686588 512.30746284 -32.86686588 512.30746284 -34.52457815 512.30837366 C-36.72531957 512.30958543 -38.92606099 512.31079956 -41.12680241 512.31201603 C-61.76046363 512.32288972 -82.39410851 512.32072994 -103.02777066 512.31463119 C-121.89490305 512.30946271 -140.76198379 512.32071597 -159.62910596 512.33972941 C-179.01142642 512.35911198 -198.39372245 512.36736303 -217.77605265 512.36360615 C-228.65389403 512.36169468 -239.53169146 512.3641764 -250.40952492 512.37832069 C-259.67042675 512.39024082 -268.93125758 512.39163229 -278.19216041 512.37953053 C-282.91465213 512.37364619 -287.63701403 512.37253011 -292.35949707 512.38453293 C-296.68798812 512.39540625 -301.01624118 512.39227117 -305.34472116 512.37827124 C-306.90522049 512.3756283 -308.46573855 512.37797813 -310.02621946 512.38600711 C-331.89648852 512.49066608 -350.06580609 505.14974129 -366 490 C-368.66852 486.8407177 -370.87581094 483.5438732 -373 480 C-373.53367187 479.1234375 -374.06734375 478.246875 -374.6171875 477.34375 C-380.40039595 467.33103089 -384.13507022 456.80284735 -384.11352539 445.19018555 C-384.11367142 444.52621262 -384.11381744 443.86223969 -384.1139679 443.17814636 C-384.11327483 440.99763651 -384.10551099 438.81721356 -384.09765625 436.63671875 C-384.09578992 435.1192886 -384.09436703 433.60185785 -384.09336853 432.08442688 C-384.08956032 428.10108765 -384.07974459 424.1177852 -384.06866455 420.13446045 C-384.05841389 416.06555682 -384.05386309 411.99664721 -384.04882812 407.92773438 C-384.03812074 399.95180609 -384.02106478 391.97590763 -384 384 C-383.43476372 383.99902319 -382.86952744 383.99804638 -382.28716278 383.99703997 C-348.73400105 383.93867835 -315.18091306 383.86481414 -281.62783229 383.77101372 C-277.59270882 383.75974651 -273.55758499 383.7486079 -269.52246094 383.73754883 C-268.31755741 383.7342433 -268.31755741 383.7342433 -267.08831239 383.730871 C-254.1078798 383.69556673 -241.12744727 383.6706639 -228.14698458 383.64965298 C-214.81272277 383.62783604 -201.47852289 383.59473006 -188.14431381 383.55129844 C-179.92649511 383.52488288 -171.70875345 383.50711333 -163.49089444 383.50065396 C-157.84393956 383.495369 -152.19708135 383.47904886 -146.55017841 383.45433434 C-143.29961178 383.4404248 -140.04924974 383.43275338 -136.79864883 383.43499184 C-100.37694072 383.45214454 -67.70977133 374.28186727 -40.890625 348.6171875 C-39 347 -39 347 -37 347 C-36.7421875 346.41863281 -36.484375 345.83726562 -36.21875 345.23828125 C-34.89785509 342.81240694 -33.4133848 341.17538134 -31.5 339.1875 C-18.04698764 324.24783229 -8.67291135 305.51906693 -4 286 C-3.75282825 285.00973312 -3.50565649 284.01946625 -3.25099468 282.99919128 C-0.36805168 269.85559459 -0.55839696 256.80190713 -0.56762695 243.3984375 C-0.55859687 240.73599919 -0.54839567 238.07358903 -0.53674316 235.41116333 C-0.51409298 229.70924273 -0.50209574 224.00738267 -0.49761391 218.30541992 C-0.49111834 210.06165063 -0.46812172 201.81799014 -0.44127061 193.574265 C-0.39813269 180.1950332 -0.36809202 166.81580601 -0.34643555 153.43652344 C-0.32538671 140.45017226 -0.29807776 127.46385878 -0.26245117 114.47753906 C-0.26025235 113.67525383 -0.25805352 112.8729686 -0.25578807 112.0463717 C-0.24471744 108.02100232 -0.23352481 103.9956333 -0.22227156 99.97026443 C-0.12927072 66.64687434 -0.0575877 33.32347042 0 0 Z " fill="#241957" transform="translate(384,0)"/>
<path d="M0 0 C17.95228174 -0.11759201 35.90446147 -0.20535502 53.85704708 -0.25906086 C62.19560169 -0.28467706 70.53391495 -0.31950348 78.87231445 -0.37719727 C86.15292519 -0.42754749 93.4333609 -0.45941092 100.71414095 -0.47044247 C104.55768941 -0.47687552 108.40073782 -0.49163214 112.24412346 -0.52865028 C137.97775639 -0.76645672 161.57596246 1.53615523 185 13 C186.00675781 13.47050781 187.01351562 13.94101563 188.05078125 14.42578125 C216.75037524 28.83935512 239.625147 56.37515556 249.87939453 86.59130859 C251.53810337 91.99896912 252.90173211 97.4523537 254 103 C254.18328857 103.91088379 254.36657715 104.82176758 254.55541992 105.76025391 C255.94973095 113.28940966 256.35031281 120.60139981 256.3125 128.25 C256.30758545 129.43440674 256.3026709 130.61881348 256.29760742 131.83911133 C256.17641507 140.92978054 255.35447431 149.21123353 253 158 C252.67128906 159.27101563 252.34257812 160.54203125 252.00390625 161.8515625 C246.12956406 183.11447045 235.19754875 201.13241904 220 217 C219.175 217.86625 218.35 218.7325 217.5 219.625 C216.675 220.40875 215.85 221.1925 215 222 C214.12214844 222.85271484 214.12214844 222.85271484 213.2265625 223.72265625 C197.68117767 238.25672423 178.47562409 247.6693128 158 253 C156.80890625 253.3196875 155.6178125 253.639375 154.390625 253.96875 C128.43775885 259.88206128 98.94440283 256.60022277 75 245 C74.40106934 244.71817871 73.80213867 244.43635742 73.18505859 244.14599609 C44.47638332 230.50353718 23.54644914 207.42886835 10 179 C9.50757813 177.98164063 9.01515625 176.96328125 8.5078125 175.9140625 C-0.48560845 155.07837296 -0.72156275 132.27313839 -0.50696969 109.99314952 C-0.47510262 106.10823823 -0.47272908 102.22329393 -0.46684265 98.33827209 C-0.45147735 91.02552257 -0.41069131 83.71315956 -0.3600952 76.40057808 C-0.3036527 68.05680229 -0.27657918 59.71300523 -0.25161803 51.36908519 C-0.1997536 34.24583551 -0.11215974 17.12295898 0 0 Z " fill="#F7D648" transform="translate(128,128)"/>
<path d="M0 0 C42.24 0 84.48 0 128 0 C128.01417969 9.88839844 128.02835938 19.77679688 128.04296875 29.96484375 C128.06305542 36.27671807 128.08440015 42.58854789 128.11132812 48.90039062 C128.15372175 58.89105375 128.19137544 68.88155241 128.19555664 78.87231445 C128.19862748 86.15305687 128.21952903 93.43350999 128.26052457 100.71414095 C128.28157829 104.55758529 128.29460144 108.40062137 128.28615379 112.24412346 C128.23937216 137.93807253 130.55466665 161.61378678 142 185 C142.47050781 186.00675781 142.94101563 187.01351562 143.42578125 188.05078125 C148.22178752 197.60035126 155.14845533 207.41978023 162.87109375 214.8515625 C165 217 165 217 165 219 C165.58136719 219.2578125 166.16273438 219.515625 166.76171875 219.78125 C169.18759306 221.10214491 170.82461866 222.5866152 172.8125 224.5 C192.50437732 242.20667993 217.00339432 251.52340802 243 255 C243 255.33 243 255.66 243 256 C162.81 256 82.62 256 0 256 C0 171.52 0 87.04 0 0 Z " fill="#7868F5" transform="translate(0,128)"/>
<path d="M0 0 C1.16144531 0.4125 2.32289063 0.825 3.51953125 1.25 C25.39581051 9.74002238 41.86880234 26.90848025 51.4375 48.125 C52.32879837 50.40248195 53.18560768 52.69389897 54 55 C54.33902344 55.94101563 54.67804688 56.88203125 55.02734375 57.8515625 C59.68581533 73.78052984 58.84636233 93.56194947 53 109 C52.5875 110.16144531 52.175 111.32289063 51.75 112.51953125 C43.8548607 132.86297256 27.98726977 149.74355198 8.125 158.85546875 C-3.60682579 163.85402808 -15.02253683 166.55672039 -27.8125 166.4375 C-28.94961426 166.43065186 -30.08672852 166.42380371 -31.25830078 166.41674805 C-40.09215738 166.24863403 -47.68190241 165.12056552 -56 162 C-57.03769531 161.63777344 -58.07539063 161.27554688 -59.14453125 160.90234375 C-79.28880509 153.27389602 -97.03442918 136.65923633 -105.90478516 116.99414062 C-114.34825856 96.7603173 -116.84165061 73.90249817 -109 53 C-108.63777344 51.96230469 -108.27554688 50.92460937 -107.90234375 49.85546875 C-100.27389602 29.71119491 -83.65923633 11.96557082 -63.99414062 3.09521484 C-43.79817166 -5.33246212 -20.85101526 -7.89624246 0 0 Z " fill="#FE7801" transform="translate(284,175)"/>
<path d="M0 0 C1.34110345 0.00294692 2.68220921 0.00498336 4.02331543 0.00610352 C8.95177701 0.01651566 13.88018909 0.044438 18.80859375 0.0703125 C35.36015625 0.1321875 35.36015625 0.1321875 52.24609375 0.1953125 C52.24609375 42.4353125 52.24609375 84.6753125 52.24609375 128.1953125 C10.00609375 128.1953125 -32.23390625 128.1953125 -75.75390625 128.1953125 C-75.81578125 117.2228125 -75.87765625 106.2503125 -75.94140625 94.9453125 C-75.96871826 91.50448242 -75.99603027 88.06365234 -76.02416992 84.51855469 C-76.03771973 80.25634766 -76.03771973 80.25634766 -76.04023743 78.24932861 C-76.04478839 76.87315952 -76.05522096 75.49700096 -76.07063293 74.12091064 C-76.16685801 65.0616841 -75.43120455 56.89533898 -72.75390625 48.1953125 C-72.35658607 46.77906212 -71.96051379 45.36246024 -71.56640625 43.9453125 C-71.29828125 43.0378125 -71.03015625 42.1303125 -70.75390625 41.1953125 C-70.09390625 41.1953125 -69.43390625 41.1953125 -68.75390625 41.1953125 C-68.52703125 40.3496875 -68.30015625 39.5040625 -68.06640625 38.6328125 C-66.73487379 35.14546558 -65.13697121 32.72834888 -62.875 29.80859375 C-61.55668563 28.07313349 -61.55668563 28.07313349 -60.75390625 25.1953125 C-59.11423415 23.82891908 -57.44280497 22.5003706 -55.75390625 21.1953125 C-55.03203125 20.4321875 -54.31015625 19.6690625 -53.56640625 18.8828125 C-47.35248058 12.94506131 -40.50655414 8.84747626 -32.69140625 5.3828125 C-31.71917114 4.94799561 -31.71917114 4.94799561 -30.72729492 4.50439453 C-20.58195689 0.18457553 -10.85476005 -0.08014996 0 0 Z " fill="#241957" transform="translate(75.75390625,-0.1953125)"/>
<path d="M0 0 C8.57115529 6.12225378 15.00721658 14.83613312 17.25 25.25 C18.53851956 39.98177748 16.84128252 52.50012258 7.25 64.25 C0.86583967 71.20943631 -8.22091092 76.59658971 -17.78955078 77.42700195 C-36.76717754 77.96645658 -36.76717754 77.96645658 -44.75 73.25 C-45.91208984 72.59644531 -45.91208984 72.59644531 -47.09765625 71.9296875 C-56.94266365 65.91420718 -63.10261578 57.46893062 -66.29418945 46.35498047 C-68.4579867 36.36233994 -67.97967193 24.10146337 -62.75 15.25 C-62.31429687 14.47527344 -61.87859375 13.70054687 -61.4296875 12.90234375 C-55.77721205 3.65143447 -47.39343973 -3.25275734 -36.86645508 -6.29418945 C-23.98510164 -9.06838335 -11.10406988 -6.79613641 0 0 Z " fill="#FFFEFD" transform="translate(280.75,220.75)"/>
</svg>
