<?xml version="1.0" encoding="UTF-8"?>
<svg version="1.1" xmlns="http://www.w3.org/2000/svg" width="150" height="150">
<path d="M0 0 C1.77913844 3.82237976 3.55725083 7.64523472 5.33447266 11.46850586 C5.93739081 12.76518182 6.54057415 14.06173452 7.14404297 15.3581543 C8.58659788 18.45737467 10.02624478 21.55786806 11.45849609 24.66186523 C12.38202801 26.66177843 13.31040761 28.65947959 14.24853516 30.65258789 C20.57698179 44.34374185 21.41936373 58.36321705 16.80078125 72.73046875 C15.74006812 75.82476798 15.74006812 75.82476798 16.6796875 78.109375 C17.07414062 78.65078125 17.46859375 79.1921875 17.875 79.75 C20 83 20 83 20 86 C19.33613281 86.01417969 18.67226562 86.02835937 17.98828125 86.04296875 C12.2739484 86.29131196 12.2739484 86.29131196 7.4375 89.0625 C6.633125 90.031875 5.82875 91.00125 5 92 C-0.76869728 97.7339461 -6.45923561 101.91299958 -14 105 C-14.721875 105.29648438 -15.44375 105.59296875 -16.1875 105.8984375 C-31.80165229 111.37423396 -49.73332447 110.28526478 -66 110 C-68.6935517 105.01406388 -71.35959656 100.01429255 -74 95 C-74.54430664 93.96673584 -74.54430664 93.96673584 -75.09960938 92.91259766 C-77.50193588 88.32126599 -79.79243194 83.68789568 -82 79 C-82.45890625 78.05382812 -82.9178125 77.10765625 -83.390625 76.1328125 C-86.1846672 69.34447054 -86.37284405 62.68416221 -86.4375 55.4375 C-86.4478125 54.479646 -86.458125 53.52179199 -86.46875 52.53491211 C-86.39323713 46.41050408 -85.43160773 41.15814433 -83.5065918 35.33984375 C-82.75256123 31.85713102 -84.15432115 29.91049357 -86 27 C-85.6015625 24.83984375 -85.6015625 24.83984375 -85 23 C-84.02160156 23.01353516 -84.02160156 23.01353516 -83.0234375 23.02734375 C-77.81357434 22.95695516 -77.81357434 22.95695516 -73.3515625 20.62109375 C-72.42081698 19.41865662 -71.50898893 18.2014158 -70.61328125 16.97265625 C-60.89297892 5.08705654 -45.12727659 2.41992241 -30.81640625 0.59375 C-20.58509319 -0.36418828 -10.26515716 -0.09462987 0 0 Z M-61.9453125 31.2578125 C-68.52433547 40.03901889 -71.25533299 49.04830184 -70 60 C-67.75121924 71.75306173 -62.62852517 83.05721224 -56 93 C-54.1078633 93.46368734 -54.1078633 93.46368734 -51.921875 93.3984375 C-50.68497925 93.40762207 -50.68497925 93.40762207 -49.4230957 93.41699219 C-48.54097412 93.40313477 -47.65885254 93.38927734 -46.75 93.375 C-45.84918701 93.36629883 -44.94837402 93.35759766 -44.02026367 93.34863281 C-30.48832373 93.05474822 -17.02949461 90.55075544 -6.85546875 81.046875 C0.6461924 72.77135828 3.5489604 63.56193767 3.2421875 52.53515625 C2.29138277 42.58237774 -2.39443614 33.85541207 -9.875 27.1875 C-26.48490166 15.56056883 -47.85692404 14.9062291 -61.9453125 31.2578125 Z " fill="#D75856" transform="translate(108,21)"/>
<path d="M0 0 C4.450599 1.32853702 8.15288514 3.10250868 12.125 5.5 C15.37278953 7.45032654 18.58131907 9.3642675 22 11 C21.58427734 11.77923828 21.58427734 11.77923828 21.16015625 12.57421875 C20.79792969 13.27160156 20.43570313 13.96898437 20.0625 14.6875 C19.70285156 15.37199219 19.34320313 16.05648437 18.97265625 16.76171875 C14.76295055 26.4491138 16.83845647 37.46162079 20.23291016 47.05419922 C22.67629472 53.25209067 25.8708727 59.12841101 29 65 C29.495 65.99 29.495 65.99 30 67 C46.99005859 67.46150059 65.12956027 67.77549389 78.4921875 55.59375 C80.71403568 53.24526799 82.34787171 50.77557553 84 48 C91.53632769 51.61810422 98.95080459 55.4943287 106 60 C106 60.33 106 60.66 106 61 C105.33613281 61.01417969 104.67226562 61.02835938 103.98828125 61.04296875 C98.2739484 61.29131196 98.2739484 61.29131196 93.4375 64.0625 C92.633125 65.031875 91.82875 66.00125 91 67 C85.23130272 72.7339461 79.54076439 76.91299958 72 80 C71.278125 80.29648438 70.55625 80.59296875 69.8125 80.8984375 C54.19834771 86.37423396 36.26667553 85.28526478 20 85 C17.3064483 80.01406388 14.64040344 75.01429255 12 70 C11.45569336 68.96673584 11.45569336 68.96673584 10.90039062 67.91259766 C8.49806412 63.32126599 6.20756806 58.68789568 4 54 C3.54109375 53.05382812 3.0821875 52.10765625 2.609375 51.1328125 C-0.1846672 44.34447054 -0.37284405 37.68416221 -0.4375 30.4375 C-0.4478125 29.479646 -0.458125 28.52179199 -0.46875 27.53491211 C-0.3933013 21.41570777 0.56540386 16.16585423 2.48730469 10.35205078 C3.27346585 7.75822895 3.27346585 7.75822895 1.6875 4.4375 C1.130625 3.633125 0.57375 2.82875 0 2 C0 1.34 0 0.68 0 0 Z " fill="#173F57" transform="translate(22,46)"/>
<path d="M0 0 C0.804375 0.33 1.60875 0.66 2.4375 1 C5.54897082 1.87339532 7.3133562 2.06053991 10.4375 1.9375 C16.31526668 1.81895681 20.29639738 3.62971094 24.875 7.3125 C27 10 27 10 27.5 13.1875 C27.7475 14.5796875 27.7475 14.5796875 28 16 C30.47130918 17.15521502 30.47130918 17.15521502 33 18 C33.9375 19.8125 33.9375 19.8125 34 22 C33.690625 22.721875 33.38125 23.44375 33.0625 24.1875 C31.9881613 27.03133773 31.96906933 28.41231722 32.125 31.375 C32.22629532 36.44820706 31.03587967 38.92552991 28 43 C24.99521878 45.3302385 22.59744541 46.80085153 19 48 C17.30117552 50.49759982 17.30117552 50.49759982 16 53 C13.23723823 52.47731534 10.6739124 51.89130413 8 51 C6.39530181 51.00552392 4.7905065 51.05112873 3.1875 51.125 C-1.32303052 51.15782773 -4.2000071 50.62380462 -8 48 C-10.4740614 45.38456366 -11.96511505 43.07413051 -13.5 39.8125 C-15.07984004 36.85029993 -15.89273885 36.07146936 -19 35 C-18 30 -18 30 -17.5 27.75 C-16.96898264 25.11869005 -16.96898264 25.11869005 -16.85546875 22.89453125 C-16.46973749 17.53914608 -15.61855196 14.20534417 -12 10 C-8.99709822 7.73250274 -6.56500652 6.18833551 -3 5 C-1.30117552 2.50240018 -1.30117552 2.50240018 0 0 Z " fill="#2EB397" transform="translate(67,49)"/>
<path d="M0 0 C-1.7342733 4.97357688 -4.43327957 9.31498953 -7.125 13.8125 C-7.82689453 14.99489258 -7.82689453 14.99489258 -8.54296875 16.20117188 C-9.69215397 18.13602454 -10.84457003 20.06887228 -12 22 C-12.680625 21.855625 -13.36125 21.71125 -14.0625 21.5625 C-27.37291836 19.01369648 -40.38987619 17.88903277 -52.2421875 25.42578125 C-56.13751831 28.18675748 -59.22560632 31.06960895 -62 35 C-67.65119704 34.5097542 -71.59704519 32.25848055 -76.375 29.4375 C-77.11105469 29.01275391 -77.84710938 28.58800781 -78.60546875 28.15039062 C-80.40839699 27.10843859 -82.20487053 26.05533146 -84 25 C-83.67 24.34 -83.34 23.68 -83 23 C-81.44135268 22.87378186 -79.87620583 22.82418689 -78.3125 22.8125 C-74.5124522 22.54602308 -74.5124522 22.54602308 -71.35546875 20.62890625 C-70.42389029 19.42349205 -69.51067628 18.20373056 -68.61328125 16.97265625 C-58.88818522 5.081195 -43.07440307 2.38263856 -28.74609375 0.59375 C-19.19107386 -0.28487252 -9.58510687 -0.09109394 0 0 Z " fill="#EB625D" transform="translate(106,21)"/>
<path d="M0 0 C4.450599 1.32853702 8.15288514 3.10250868 12.125 5.5 C15.37278953 7.45032654 18.58131907 9.3642675 22 11 C21.58427734 11.77923828 21.58427734 11.77923828 21.16015625 12.57421875 C20.79792969 13.27160156 20.43570313 13.96898437 20.0625 14.6875 C19.70285156 15.37199219 19.34320313 16.05648437 18.97265625 16.76171875 C14.76256678 26.44999692 16.83895738 37.46488477 20.23291016 47.05859375 C22.22690297 52.10513445 24.76447383 56.90460851 27.29296875 61.69921875 C29 65 29 65 30 68 C27.87120264 74.13594532 24.41672577 79.50448961 21 85 C17.67560459 83.3378023 16.83997126 79.64295835 15.375 76.375 C12.13443352 69.27993598 8.60322497 62.44707697 4.76171875 55.66015625 C0.58828267 47.50805963 -0.48420445 39.63253595 -0.375 30.5625 C-0.38660156 29.60279297 -0.39820312 28.64308594 -0.41015625 27.65429688 C-0.38519654 21.4767687 0.53928459 16.21482784 2.48510742 10.34765625 C3.27403841 7.75780431 3.27403841 7.75780431 1.6875 4.4375 C1.130625 3.633125 0.57375 2.82875 0 2 C0 1.34 0 0.68 0 0 Z " fill="#224C66" transform="translate(22,46)"/>
<path d="M0 0 C0 4.09419813 -1.49586481 5.15434475 -4.25 8.125 C-9.22881071 13.03248104 -12.83539744 14.1154544 -19.7265625 14.1328125 C-20.47679688 14.08898438 -21.22703125 14.04515625 -22 14 C-21.67 13.34 -21.34 12.68 -21 12 C-19.44135268 11.87378186 -17.87620583 11.82418689 -16.3125 11.8125 C-12.42153033 11.51650552 -12.42153033 11.51650552 -9.1796875 9.5234375 C-8.19035871 8.30620051 -7.23479393 7.06067621 -6.31640625 5.7890625 C-4.55488754 3.39506972 -2.38118613 1.75087215 0 0 Z " fill="#CD5A58" transform="translate(44,32)"/>
<path d="M0 0 C0.33 0.66 0.66 1.32 1 2 C-0.36125 2.61875 -0.36125 2.61875 -1.75 3.25 C-4.80952394 4.89743597 -6.61885918 6.53381843 -9 9 C-9.66 9 -10.32 9 -11 9 C-9.49364535 4.78220697 -6.75987578 3.2252326 -3 1 C-2.01 0.67 -1.02 0.34 0 0 Z " fill="#329F88" transform="translate(64,54)"/>
</svg>
